<?xml version="1.0" standalone="no"?><!DOCTYPE svg PUBLIC "-//W3C//DTD SVG 1.1//EN" "http://www.w3.org/Graphics/SVG/1.1/DTD/svg11.dtd"><svg t="1546484890809" class="icon" style="" viewBox="0 0 1024 1024" version="1.1" xmlns="http://www.w3.org/2000/svg" p-id="5954" xmlns:xlink="http://www.w3.org/1999/xlink" width="200" height="200"><defs><style type="text/css"></style></defs><path d="M870.4 409.6V307.2a102.4 102.4 0 0 0-102.4-102.4h-256a102.4 102.4 0 0 0-102.4-102.4H153.6a102.4 102.4 0 0 0-102.4 102.4v614.4a102.4 102.4 0 0 0 102.4 102.4h614.4a102.4 102.4 0 0 0 102.4-102.4l102.4-307.2a102.4 102.4 0 0 0-102.4-102.4zM153.6 204.8h256v102.4h358.4v102.4H256c-66.048 0-78.336 51.2-102.4 102.4z m614.4 588.8a25.6 25.6 0 0 1-25.6 25.6h-563.2a25.6 25.6 0 0 1-25.6-25.6l102.4-256a25.6 25.6 0 0 1 25.6-25.6h563.2a25.6 25.6 0 0 1 25.6 25.6z" fill="#ffffff" p-id="5955"></path></svg>