<?xml version="1.0" standalone="no"?><!DOCTYPE svg PUBLIC "-//W3C//DTD SVG 1.1//EN" "http://www.w3.org/Graphics/SVG/1.1/DTD/svg11.dtd"><svg t="1547188039964" class="icon" style="" viewBox="0 0 1024 1024" version="1.1" xmlns="http://www.w3.org/2000/svg" p-id="4671" xmlns:xlink="http://www.w3.org/1999/xlink" width="200" height="200"><defs><style type="text/css"></style></defs><path d="M720.74065 445.1208 720.74065 340.695472c0 0 2.600221-208.850655-208.851679-208.850655-208.876238 0-208.850655 208.850655-208.850655 208.850655L303.038316 445.1208l-78.319763 0 0 417.702334 574.340837 0L799.05939 445.1208 720.74065 445.1208zM537.995559 653.971455l0 104.426351-52.212152 0L485.783407 653.971455c-22.077831 0-26.106588-29.510104-26.106588-52.212152 0-25.481348 19.070334-52.237735 52.212152-52.237735 33.920554 0 52.238758 24.77936 52.212152 52.237735C564.102147 633.933073 557.269531 653.971455 537.995559 653.971455M668.528498 445.1208 355.251491 445.1208 355.251491 340.695472c0.292666-25.239847 5.748934-156.638503 156.63748-156.638503 145.599076 0 156.344814 131.793652 156.638503 156.638503L668.527474 445.1208z" p-id="4672"></path></svg>